# Blender v3.1.2 OBJ File: 'walk.blend'
# www.blender.org
mtllib walk.mtl
o Cylinder
v -0.002062 1.730253 -1.000032
v 0.000000 2.557192 -1.000000
v 0.192532 1.730168 -0.980814
v 0.195090 2.557192 -0.980785
v 0.378504 1.730204 -0.923910
v 0.382683 2.557192 -0.923879
v 0.546306 1.730261 -0.831503
v 0.555404 2.557221 -0.831471
v 0.699694 1.729432 -0.707109
v 0.706820 2.557193 -0.707107
v 0.825723 1.729008 -0.555557
v 0.831204 2.557156 -0.555569
v 0.919579 1.728875 -0.382665
v 0.923744 2.557160 -0.382682
v 0.977661 1.728914 -0.195074
v 0.980785 2.557192 -0.195090
v 0.997822 1.729034 0.000013
v 1.000000 2.557192 0.000000
v 0.979861 1.729247 0.195095
v 0.980785 2.557192 0.195090
v 0.923813 1.729377 0.382684
v 0.923880 2.557192 0.382683
v 0.831470 1.729385 0.555570
v 0.831470 2.557192 0.555570
v 0.707107 1.729385 0.707107
v 0.707107 2.557192 0.707107
v 0.555570 1.729385 0.831470
v 0.555570 2.557192 0.831470
v 0.382683 1.729385 0.923880
v 0.382683 2.557192 0.923880
v 0.195090 1.729385 0.980785
v 0.195090 2.557192 0.980785
v -0.000000 1.729385 1.000000
v -0.000000 2.557192 1.000000
v -0.195090 1.729385 0.980785
v -0.195090 2.557192 0.980785
v -0.382683 1.729385 0.923880
v -0.382683 2.557192 0.923880
v -0.555570 1.729385 0.831470
v -0.555570 2.557192 0.831470
v -0.707107 1.729385 0.707107
v -0.707107 2.557192 0.707107
v -0.831469 1.729385 0.555570
v -0.831469 2.557192 0.555570
v -0.923880 1.729385 0.382684
v -0.923880 2.557192 0.382684
v -0.980785 1.729385 0.195090
v -0.980785 2.557192 0.195090
v -1.000000 1.729385 -0.000000
v -1.000000 2.557192 -0.000000
v -0.980785 1.729385 -0.195090
v -0.980785 2.557192 -0.195090
v -0.923879 1.729385 -0.382684
v -0.923879 2.557192 -0.382684
v -0.831470 1.729385 -0.555570
v -0.831470 2.557192 -0.555570
v -0.707107 1.729385 -0.707107
v -0.707107 2.557192 -0.707107
v -0.555570 1.729385 -0.831470
v -0.555570 2.557192 -0.831470
v -0.382828 1.729478 -0.923883
v -0.382683 2.557192 -0.923880
v -0.196214 1.729987 -0.980808
v -0.195090 2.557192 -0.980785
v 0.424732 1.729385 0.633698
v 0.129982 1.729385 0.545547
v -0.085183 1.729385 0.742485
v -0.038352 1.729385 0.882821
v 0.382683 1.256759 0.923879
v 0.195090 1.256759 0.980785
v 0.424732 1.256759 0.633697
v 0.129982 1.256759 0.545547
v -0.085183 1.256759 0.742485
v -0.038352 1.256759 0.882821
v 0.382684 0.711584 0.923880
v 0.195090 0.711584 0.980785
v 0.424732 0.711584 0.633698
v 0.129982 0.711584 0.545548
v -0.085183 0.711584 0.742485
v -0.038352 0.711584 0.882821
v 0.382684 0.069924 0.923880
v 0.195090 0.069924 0.980785
v 0.424732 0.069924 0.633698
v 0.129982 0.069924 0.545548
v -0.085183 0.069924 0.742485
v -0.038352 0.069924 0.882821
v 0.032688 1.730259 -0.857839
v 0.110135 1.729385 -0.635891
v 0.268856 1.729385 -0.588991
v 0.407934 1.731604 -0.706585
v 0.151356 1.296830 -0.981131
v 0.338796 1.292892 -0.924098
v -0.009651 1.300233 -0.858295
v 0.063534 1.298912 -0.636380
v 0.222232 1.295481 -0.589355
v 0.374881 1.292209 -0.706727
v 0.130652 0.720586 -0.980358
v 0.318194 0.712774 -0.923751
v -0.029284 0.727124 -0.857114
v 0.046246 0.723727 -0.635318
v 0.204904 0.717105 -0.588674
v 0.356528 0.710969 -0.706431
v 0.103804 0.072731 -0.981212
v 0.291325 0.064903 -0.924608
v -0.056081 0.079177 -0.857975
v 0.019457 0.075759 -0.636181
v 0.178115 0.069137 -0.589537
v 0.329717 0.063026 -0.707292
vt 1.000000 0.500000
vt 1.000000 1.000000
vt 0.968750 1.000000
vt 0.968750 0.500000
vt 0.937500 1.000000
vt 0.937500 0.500000
vt 0.906250 1.000000
vt 0.906250 0.500000
vt 0.875000 1.000000
vt 0.875000 0.500000
vt 0.843750 1.000000
vt 0.843750 0.500000
vt 0.812500 1.000000
vt 0.812500 0.500000
vt 0.781250 1.000000
vt 0.781250 0.500000
vt 0.750000 1.000000
vt 0.750000 0.500000
vt 0.718750 1.000000
vt 0.718750 0.500000
vt 0.687500 1.000000
vt 0.687500 0.500000
vt 0.656250 1.000000
vt 0.656250 0.500000
vt 0.625000 1.000000
vt 0.625000 0.500000
vt 0.593750 1.000000
vt 0.593750 0.500000
vt 0.562500 1.000000
vt 0.562500 0.500000
vt 0.531250 1.000000
vt 0.531250 0.500000
vt 0.500000 1.000000
vt 0.500000 0.500000
vt 0.468750 1.000000
vt 0.468750 0.500000
vt 0.437500 1.000000
vt 0.437500 0.500000
vt 0.406250 1.000000
vt 0.406250 0.500000
vt 0.375000 1.000000
vt 0.375000 0.500000
vt 0.343750 1.000000
vt 0.343750 0.500000
vt 0.312500 1.000000
vt 0.312500 0.500000
vt 0.281250 1.000000
vt 0.281250 0.500000
vt 0.250000 1.000000
vt 0.250000 0.500000
vt 0.218750 1.000000
vt 0.218750 0.500000
vt 0.187500 1.000000
vt 0.187500 0.500000
vt 0.156250 1.000000
vt 0.156250 0.500000
vt 0.125000 1.000000
vt 0.125000 0.500000
vt 0.093750 1.000000
vt 0.093750 0.500000
vt 0.062500 1.000000
vt 0.062500 0.500000
vt 0.296822 0.485388
vt 0.250000 0.490000
vt 0.203178 0.485388
vt 0.158156 0.471731
vt 0.116663 0.449553
vt 0.080294 0.419706
vt 0.050447 0.383337
vt 0.028269 0.341844
vt 0.014612 0.296822
vt 0.010000 0.250000
vt 0.014612 0.203178
vt 0.028269 0.158156
vt 0.050447 0.116663
vt 0.080294 0.080294
vt 0.116663 0.050447
vt 0.158156 0.028269
vt 0.203178 0.014612
vt 0.250000 0.010000
vt 0.296822 0.014612
vt 0.341844 0.028269
vt 0.383337 0.050447
vt 0.419706 0.080294
vt 0.449553 0.116663
vt 0.471731 0.158156
vt 0.485388 0.203178
vt 0.490000 0.250000
vt 0.485388 0.296822
vt 0.471731 0.341844
vt 0.449553 0.383337
vt 0.419706 0.419706
vt 0.383337 0.449553
vt 0.341844 0.471731
vt 0.031250 1.000000
vt 0.031250 0.500000
vt 0.000000 1.000000
vt 0.000000 0.500000
vt 0.750000 0.490000
vt 0.796822 0.485388
vt 0.758371 0.455874
vt 0.776433 0.402614
vt 0.814525 0.391358
vt 0.850985 0.419560
vt 0.841844 0.471731
vt 0.883337 0.449553
vt 0.919706 0.419706
vt 0.949553 0.383337
vt 0.971731 0.341844
vt 0.985388 0.296822
vt 0.990000 0.250000
vt 0.985388 0.203178
vt 0.971731 0.158156
vt 0.949553 0.116663
vt 0.919706 0.080294
vt 0.883337 0.050447
vt 0.841844 0.028269
vt 0.851936 0.097913
vt 0.781196 0.119069
vt 0.729556 0.071804
vt 0.740795 0.038123
vt 0.796822 0.014612
vt 0.750000 0.010000
vt 0.703178 0.014612
vt 0.658156 0.028269
vt 0.616663 0.050447
vt 0.580294 0.080294
vt 0.550447 0.116663
vt 0.528269 0.158156
vt 0.514612 0.203178
vt 0.510000 0.250000
vt 0.514612 0.296822
vt 0.528269 0.341844
vt 0.550447 0.383337
vt 0.580294 0.419706
vt 0.616663 0.449553
vt 0.658156 0.471731
vt 0.703178 0.485388
vt 0.740795 0.038123
vt 0.729556 0.071804
vt 0.729556 0.071804
vt 0.740795 0.038123
vt 0.531250 0.500000
vt 0.562500 0.500000
vt 0.781196 0.119069
vt 0.841844 0.028269
vt 0.851936 0.097913
vt 0.796822 0.014612
vt 0.796822 0.014612
vt 0.740795 0.038123
vt 0.796822 0.014612
vt 0.851936 0.097913
vt 0.781196 0.119069
vt 0.531250 0.500000
vt 0.562500 0.500000
vt 0.841844 0.028269
vt 0.729556 0.071804
vt 0.781196 0.119069
vt 0.851936 0.097913
vt 0.841844 0.028269
vt 0.531250 0.500000
vt 0.562500 0.500000
vt 0.841844 0.471731
vt 0.850985 0.419560
vt 0.850985 0.419560
vt 0.841844 0.471731
vt 0.814525 0.391358
vt 0.758371 0.455874
vt 0.776433 0.402614
vt 0.937500 0.500000
vt 0.968750 0.500000
vt 0.796822 0.485388
vt 0.814525 0.391358
vt 0.814525 0.391358
vt 0.850985 0.419560
vt 0.776433 0.402614
vt 0.796822 0.485388
vt 0.758371 0.455874
vt 0.937500 0.500000
vt 0.968750 0.500000
vt 0.841844 0.471731
vt 0.776433 0.402614
vt 0.758371 0.455874
vt 0.796822 0.485388
vt 0.937500 0.500000
vt 0.968750 0.500000
vn 0.0981 -0.0002 -0.9952
vn 0.2914 -0.0012 -0.9566
vn 0.4770 -0.0038 -0.8789
vn 0.6323 -0.0062 -0.7747
vn 0.7709 -0.0059 -0.6369
vn 0.8802 -0.0051 -0.4745
vn 0.9560 -0.0042 -0.2933
vn 0.9949 -0.0032 -0.1004
vn 0.9955 -0.0019 0.0949
vn 0.9575 -0.0006 0.2883
vn 0.8820 -0.0000 0.4713
vn 0.7730 -0.0000 0.6344
vn 0.6344 -0.0000 0.7730
vn 0.4714 0.0000 0.8819
vn 0.2903 -0.0000 0.9569
vn 0.0980 -0.0000 0.9952
vn -0.0980 -0.0000 0.9952
vn -0.2903 -0.0000 0.9569
vn -0.4714 0.0000 0.8819
vn -0.6344 0.0000 0.7730
vn -0.7730 -0.0000 0.6344
vn -0.8819 0.0000 0.4714
vn -0.9569 0.0000 0.2903
vn -0.9952 0.0000 0.0980
vn -0.9952 -0.0000 -0.0980
vn -0.9569 0.0000 -0.2903
vn -0.8819 0.0000 -0.4714
vn -0.7730 0.0000 -0.6344
vn -0.6344 0.0000 -0.7730
vn -0.4716 0.0000 -0.8818
vn 0.0000 1.0000 -0.0000
vn -0.2910 0.0002 -0.9567
vn -0.0983 0.0002 -0.9952
vn -0.0002 -1.0000 -0.0002
vn -0.9486 0.0000 0.3165
vn -0.6752 0.0000 -0.7377
vn 0.9897 0.0000 0.1434
vn 0.2865 0.0000 -0.9581
vn -0.3870 -0.0000 0.9221
vn 0.0000 -1.0000 0.0000
vn 0.9851 -0.0331 -0.1688
vn 0.6261 -0.0576 0.7776
vn -0.9423 0.0970 0.3203
vn 0.2915 -0.0265 -0.9562
vn 0.9855 -0.0817 -0.1484
vn -0.2833 0.0296 0.9586
vn -0.6067 0.0594 -0.7927
vn 0.6125 -0.0264 0.7900
vn -0.2828 0.0099 0.9591
vn -0.6080 0.0200 -0.7937
vn 0.6110 -0.0181 0.7914
vn -0.9476 0.0311 0.3179
vn 0.2897 -0.0113 -0.9571
vn -0.0413 -0.9991 -0.0013
vn -0.9457 0.0387 0.3227
vn 0.2885 -0.0107 -0.9574
vn 0.9839 -0.0405 -0.1740
vn -0.2816 0.0104 0.9595
vn -0.6096 0.0263 -0.7923
usemtl None
s off
f 1/1/1 2/2/1 4/3/1 3/4/1
f 3/4/2 4/3/2 6/5/2 5/6/2
f 5/6/3 6/5/3 8/7/3 7/8/3
f 7/8/4 8/7/4 10/9/4 9/10/4
f 9/10/5 10/9/5 12/11/5 11/12/5
f 11/12/6 12/11/6 14/13/6 13/14/6
f 13/14/7 14/13/7 16/15/7 15/16/7
f 15/16/8 16/15/8 18/17/8 17/18/8
f 17/18/9 18/17/9 20/19/9 19/20/9
f 19/20/10 20/19/10 22/21/10 21/22/10
f 21/22/11 22/21/11 24/23/11 23/24/11
f 23/24/12 24/23/12 26/25/12 25/26/12
f 25/26/13 26/25/13 28/27/13 27/28/13
f 27/28/14 28/27/14 30/29/14 29/30/14
f 29/30/15 30/29/15 32/31/15 31/32/15
f 31/32/16 32/31/16 34/33/16 33/34/16
f 33/34/17 34/33/17 36/35/17 35/36/17
f 35/36/18 36/35/18 38/37/18 37/38/18
f 37/38/19 38/37/19 40/39/19 39/40/19
f 39/40/20 40/39/20 42/41/20 41/42/20
f 41/42/21 42/41/21 44/43/21 43/44/21
f 43/44/22 44/43/22 46/45/22 45/46/22
f 45/46/23 46/45/23 48/47/23 47/48/23
f 47/48/24 48/47/24 50/49/24 49/50/24
f 49/50/25 50/49/25 52/51/25 51/52/25
f 51/52/26 52/51/26 54/53/26 53/54/26
f 53/54/27 54/53/27 56/55/27 55/56/27
f 55/56/28 56/55/28 58/57/28 57/58/28
f 57/58/29 58/57/29 60/59/29 59/60/29
f 59/60/30 60/59/30 62/61/30 61/62/30
f 4/63/31 2/64/31 64/65/31 62/66/31 60/67/31 58/68/31 56/69/31 54/70/31 52/71/31 50/72/31 48/73/31 46/74/31 44/75/31 42/76/31 40/77/31 38/78/31 36/79/31 34/80/31 32/81/31 30/82/31 28/83/31 26/84/31 24/85/31 22/86/31 20/87/31 18/88/31 16/89/31 14/90/31 12/91/31 10/92/31 8/93/31 6/94/31
f 61/62/32 62/61/32 64/95/32 63/96/32
f 63/96/33 64/95/33 2/97/33 1/98/33
f 1/99/34 3/100/34 87/101/34 88/102/34 89/103/34 90/104/34 5/105/34 7/106/34 9/107/34 11/108/34 13/109/34 15/110/34 17/111/34 19/112/34 21/113/34 23/114/34 25/115/34 27/116/34 29/117/34 65/118/34 66/119/34 67/120/34 68/121/34 31/122/34 33/123/34 35/124/34 37/125/34 39/126/34 41/127/34 43/128/34 45/129/34 47/130/34 49/131/34 51/132/34 53/133/34 55/134/34 57/135/34 59/136/34 61/137/34 63/138/34
f 74/139/35 73/140/35 79/141/35 80/142/35
f 29/30/15 31/32/15 70/143/15 69/144/15
f 67/120/36 66/119/36 72/145/36 73/140/36
f 65/118/37 29/117/37 69/146/37 71/147/37
f 68/121/35 67/120/35 73/140/35 74/139/35
f 66/119/38 65/118/38 71/147/38 72/145/38
f 31/122/39 68/121/39 74/139/39 70/148/39
f 76/149/39 80/142/39 86/150/39 82/151/39
f 72/145/38 71/147/38 77/152/38 78/153/38
f 69/144/15 70/143/15 76/154/15 75/155/15
f 70/148/39 74/139/39 80/142/39 76/149/39
f 73/140/36 72/145/36 78/153/36 79/141/36
f 71/147/37 69/146/37 75/156/37 77/152/37
f 82/151/40 86/150/40 85/157/40 84/158/40 83/159/40 81/160/40
f 79/141/36 78/153/36 84/158/36 85/157/36
f 77/152/37 75/156/37 81/160/37 83/159/37
f 80/142/35 79/141/35 85/157/35 86/150/35
f 78/153/38 77/152/38 83/159/38 84/158/38
f 75/155/15 76/154/15 82/161/15 81/162/15
f 92/163/41 96/164/41 102/165/41 98/166/41
f 90/104/42 89/103/42 95/167/42 96/164/42
f 88/102/43 87/101/43 93/168/43 94/169/43
f 3/4/44 5/6/44 92/170/44 91/171/44
f 5/105/45 90/104/45 96/164/45 92/163/45
f 89/103/46 88/102/46 94/169/46 95/167/46
f 87/101/47 3/100/47 91/172/47 93/168/47
f 102/165/48 101/173/48 107/174/48 108/175/48
f 95/167/49 94/169/49 100/176/49 101/173/49
f 93/168/50 91/172/50 97/177/50 99/178/50
f 96/164/51 95/167/51 101/173/51 102/165/51
f 94/169/52 93/168/52 99/178/52 100/176/52
f 91/171/53 92/170/53 98/179/53 97/180/53
f 104/181/54 108/175/54 107/174/54 106/182/54 105/183/54 103/184/54
f 100/176/55 99/178/55 105/183/55 106/182/55
f 97/180/56 98/179/56 104/185/56 103/186/56
f 98/166/57 102/165/57 108/175/57 104/181/57
f 101/173/58 100/176/58 106/182/58 107/174/58
f 99/178/59 97/177/59 103/184/59 105/183/59
